PathFileType	4	(X/Y/Z)	/Users/itak/Documents/Research/Walk-IL/dataset/trc/00492_00167.trc
DataRate	CameraRate	NumFrames	NumMarkers	Units	OrigDataRate	OrigDataStartFrame	OrigNumFrames
100.000000	100.000000	4	53	mm	100.000000	276	552
Frame#	Time	RPSI			LPSI			L3			STRN			T10			C7			CLAV			RBAK			LBAK			LSHO			LUPA			LAEL			LAOL			LWTS			LWPS			LFRA			LIFD			LHPS			LHTS			RSHO			RUPA			RAEL			RAOL			RWTS			RWPS			RFRA			RIFD			RHTS			RHPS			RBHD			LFHD			RFHD			LBHD			LHIP			RHIP			RASI			LASI			LKNE			LTHI			LANK			LTIP			LTOE			LMT1			LMT5			LHEE			RKNE			RTHI			RANK			RTIP			RTOE			RMT1			RMT5			RHEE			
		X1	Y1	Z1	X2	Y2	Z2	X3	Y3	Z3	X4	Y4	Z4	X5	Y5	Z5	X6	Y6	Z6	X7	Y7	Z7	X8	Y8	Z8	X9	Y9	Z9	X10	Y10	Z10	X11	Y11	Z11	X12	Y12	Z12	X13	Y13	Z13	X14	Y14	Z14	X15	Y15	Z15	X16	Y16	Z16	X17	Y17	Z17	X18	Y18	Z18	X19	Y19	Z19	X20	Y20	Z20	X21	Y21	Z21	X22	Y22	Z22	X23	Y23	Z23	X24	Y24	Z24	X25	Y25	Z25	X26	Y26	Z26	X27	Y27	Z27	X28	Y28	Z28	X29	Y29	Z29	X30	Y30	Z30	X31	Y31	Z31	X32	Y32	Z32	X33	Y33	Z33	X34	Y34	Z34	X35	Y35	Z35	X36	Y36	Z36	X37	Y37	Z37	X38	Y38	Z38	X39	Y39	Z39	X40	Y40	Z40	X41	Y41	Z41	X42	Y42	Z42	X43	Y43	Z43	X44	Y44	Z44	X45	Y45	Z45	X46	Y46	Z46	X47	Y47	Z47	X48	Y48	Z48	X49	Y49	Z49	X50	Y50	Z50	X51	Y51	Z51	X52	Y52	Z52	X53	Y53	Z53	

277	2.76	-464.369140625	953.1895141601562	339.2015380859375	-435.8882751464844	938.3267822265625	200.0260467529297	-440.50634765625	1047.576293945312	310.8212890625	-160.6593322753906	1241.928466796875	308.1509704589844	-447.6221618652344	1172.033081054688	324.1206665039062	-377.0127868652344	1439.311401367188	347.7330932617188	-197.2573699951172	1354.720581054688	305.1414794921875	-426.3117370605469	1319.492431640625	446.4284973144531	-424.87890625	1392.280883789062	254.9501342773438	-336.9347839355469	1416.202880859375	161.890625	-372.8976440429688	1307.215209960938	61.94348907470703	-379.9633483886719	1096.320678710938	7.571780681610107	-441.4684143066406	1079.603149414062	89.71994781494141	-297.7590637207031	888.4146118164062	24.05796051025391	-355.910400390625	878.4602661132812	-24.35350799560547	-362.8475646972656	1008.477600097656	-11.27483463287354	-299.548095703125	725.9763793945312	8.154128074645996	-347.6442260742188	800.9512939453125	-30.78031349182129	-286.4423217773438	802.9525756835938	7.258050441741943	-286.7343139648438	1408.93359375	491.4934997558594	-288.79248046875	1355.678100585938	571.9385986328125	-236.5939788818359	1090.978149414062	673.1448364257812	-293.074462890625	1062.619750976562	649.9480590820312	-123.9161987304688	887.7737426757812	644.1276245117188	-171.1934356689453	882.8448486328125	717.8870849609375	-223.0758514404297	1036.347900390625	692.3676147460938	-101.5311050415039	737.5223388671875	681.5881958007812	-94.43213653564453	796.6285400390625	670.1561889648438	-144.3825988769531	797.7839965820312	728.0785522460938	-237.2102661132812	1645.963012695312	387.4153747558594	-244.8685913085938	1640.68359375	180.9485931396484	-157.3988189697266	1659.290893554688	276.35400390625	-369.1226196289062	1625.71533203125	269.4046325683594	-261.9018859863281	845.82861328125	113.8890228271484	-380.5588073730469	853.1199951171875	496.202880859375	-262.3341979980469	890.7052612304688	456.8067016601562	-200.8293609619141	893.744140625	213.6675872802734	-81.62268829345703	468.2498474121094	190.7157287597656	-113.9272766113281	619.4064331054688	159.56494140625	-143.8530883789062	51.53008270263672	212.7014617919922	-85.11990356445312	312.8067016601562	182.6532745361328	87.86882781982422	78.86480712890625	267.7865905761719	14.67917442321777	71.25777435302734	300.0425109863281	3.176852464675903	72.91693115234375	190.3833618164062	-184.0142974853516	56.16648864746094	279.6962585449219	-363.6540832519531	461.2577819824219	475.9424438476562	-341.9562377929688	720.3775634765625	513.4698486328125	-482.9884033203125	44.78167724609375	451.9827270507812	-384.8033752441406	316.6299133300781	481.5054321289062	-258.4599914550781	41.14021301269531	473.6384887695312	-310.0785217285156	51.18843841552734	419.8262634277344	-364.17626953125	38.74367904663086	518.2111206054688	-529.9774169921875	40.53499984741211	387.8037719726562	
278	2.77	-456.9238891601562	952.6998291015625	340.0730285644531	-429.0242919921875	937.5457763671875	200.8172454833984	-433.2151489257812	1046.624389648438	311.6655578613281	-153.6481781005859	1240.975830078125	307.3403930664062	-440.3409423828125	1170.968139648438	325.1605834960938	-369.8760375976562	1438.3115234375	348.1711730957031	-190.3471984863281	1353.725463867188	304.25	-418.3994140625	1318.598510742188	447.3890075683594	-418.1138916015625	1390.722534179688	256.1502380371094	-331.3978576660156	1414.890380859375	162.0616912841797	-368.68359375	1305.69580078125	62.70266723632812	-376.9447326660156	1094.786499023438	9.05389404296875	-437.4833374023438	1078.4404296875	92.11260986328125	-296.1627197265625	886.3440551757812	24.63178253173828	-354.8267822265625	876.8025512695312	-22.96802139282227	-360.7735900878906	1006.810363769531	-9.902433395385742	-299.1665649414062	723.9457397460938	8.79255199432373	-347.3054809570312	799.2422485351562	-29.39348983764648	-285.5781555175781	800.8392944335938	7.767143726348877	-278.546875	1408.193725585938	491.1760864257812	-279.7033081054688	1355.181274414062	571.735595703125	-223.6410980224609	1091.854125976562	673.9745483398438	-279.8707885742188	1062.46142578125	651.51904296875	-107.9552307128906	890.54638671875	644.879638671875	-154.3941345214844	885.1568603515625	719.1162719726562	-209.1365509033203	1037.548217773438	693.3831176757812	-82.17581176757812	741.092529296875	683.0942993164062	-76.33206939697266	800.231201171875	671.2203369140625	-125.7879257202148	800.7316284179688	729.6437377929688	-229.6576690673828	1645.433227539062	385.7004699707031	-239.3385009765625	1638.926025390625	179.3211975097656	-150.9857940673828	1658.1298828125	273.7887878417969	-362.6209106445312	1624.453125	269.0862731933594	-255.6250305175781	844.54296875	114.3692626953125	-373.1783142089844	852.73583984375	496.8871459960938	-254.6950836181641	889.7423095703125	457.2241516113281	-193.9013824462891	892.41748046875	213.8876953125	-75.37837982177734	466.7384033203125	189.9048919677734	-109.2389068603516	617.5166625976562	159.1322631835938	-118.5452423095703	48.68107604980469	214.9604797363281	-72.27066802978516	312.1345520019531	183.0520324707031	111.5335693359375	86.98065948486328	270.0811462402344	38.79956436157227	76.11933898925781	302.349609375	27.31249046325684	76.64655303955078	192.6658782958984	-158.9447021484375	51.90205383300781	281.8987731933594	-360.7106018066406	460.853515625	475.8569030761719	-335.7999572753906	719.713134765625	513.8241577148438	-482.8650207519531	45.00826263427734	451.6146240234375	-383.0888061523438	316.45263671875	481.261962890625	-258.404296875	41.07446670532227	473.6951599121094	-309.950439453125	51.13850402832031	419.8218688964844	-364.22509765625	38.77402877807617	518.0734252929688	-529.7269287109375	40.9213981628418	387.2992248535156	
279	2.78	-449.4056396484375	952.0997924804688	340.8095703125	-422.1481018066406	936.6090698242188	201.4761352539062	-425.8661499023438	1045.559936523438	312.3330078125	-146.5802459716797	1239.935302734375	306.4066772460938	-433.0193481445312	1169.80810546875	325.9683837890625	-362.7202453613281	1437.216918945312	348.3692932128906	-183.4015045166016	1352.64501953125	303.223388671875	-410.4973449707031	1317.614868164062	448.0753784179688	-411.3573608398438	1389.141723632812	257.0392761230469	-325.7136840820312	1413.46484375	162.0159912109375	-364.275146484375	1304.021850585938	63.25395584106445	-373.5813293457031	1093.06689453125	10.50790119171143	-433.1990966796875	1077.135620117188	94.45602416992188	-294.4125061035156	884.0477905273438	25.2454891204834	-353.6214599609375	874.9706420898438	-21.54245948791504	-358.5273132324219	1004.958862304688	-8.552361488342285	-298.83642578125	721.6809692382812	9.48536491394043	-346.9756469726562	797.3226318359375	-27.9001522064209	-284.7013244628906	798.4759521484375	8.29640007019043	-270.4190063476562	1407.380737304688	490.6675720214844	-270.7422485351562	1354.588623046875	571.3247680664062	-211.0001831054688	1092.613403320312	674.4901733398438	-266.9393615722656	1062.189453125	652.7009887695312	-92.237548828125	893.3104248046875	645.2867431640625	-137.9389953613281	887.4061889648438	719.9223022460938	-195.4767150878906	1038.644653320312	694.033935546875	-63.04604339599609	744.7149047851562	684.1893310546875	-58.4830436706543	803.878173828125	671.9148559570312	-107.5437469482422	803.6611938476562	730.7616577148438	-222.1246490478516	1644.8154296875	383.8203430175781	-233.765869140625	1637.090454101562	177.5361633300781	-144.5822601318359	1656.88916015625	271.0820617675781	-356.0782470703125	1623.075439453125	268.5500793457031	-249.3328094482422	843.1677856445312	114.772102355957	-365.7151184082031	852.3148193359375	497.4890441894531	-246.9941864013672	888.7489013671875	457.5876159667969	-186.9683380126953	890.9486083984375	214.0474853515625	-69.35704803466797	465.082275390625	188.8843994140625	-104.5512847900391	615.5067138671875	158.5257568359375	-94.47419738769531	46.62643814086914	217.1437530517578	-60.19251251220703	311.6058959960938	183.2606658935547	133.7454986572266	95.37028503417969	271.67138671875	61.68019485473633	81.41867065429688	304.1326904296875	49.9371337890625	80.857666015625	194.4688262939453	-134.8478851318359	48.49785995483398	284.1721801757812	-357.5841674804688	460.462158203125	475.7639465332031	-329.5525512695312	719.0338745117188	514.1265258789062	-482.7433166503906	45.28838348388672	451.2706604003906	-381.2325439453125	316.3046569824219	481.033203125	-258.3541259765625	41.01644897460938	473.7501831054688	-309.833251953125	51.09609222412109	419.8251037597656	-364.2843627929688	38.80835342407227	517.9332885742188	-529.4713745117188	41.40371322631836	386.8117980957031	
280	2.79	-441.818359375	951.39208984375	341.4504089355469	-415.2762756347656	935.517578125	202.0412139892578	-418.4620666503906	1044.388549804688	312.8557434082031	-139.4497528076172	1238.819213867188	305.3388366699219	-425.6582946777344	1168.562866210938	326.5540161132812	-355.5410766601562	1436.040649414062	348.319091796875	-176.4160003662109	1351.493286132812	302.0547180175781	-402.6012878417969	1316.549682617188	448.4890747070312	-404.6169128417969	1387.557861328125	257.6040344238281	-319.8819274902344	1411.938598632812	161.7436676025391	-359.662841796875	1302.208129882812	63.58635711669922	-369.9012756347656	1091.175903320312	11.91180992126465	-428.60498046875	1075.70263671875	96.73482513427734	-292.5049133300781	881.5413208007812	25.88440322875977	-352.2933959960938	872.9735107421875	-20.0756893157959	-356.1151428222656	1002.938293457031	-7.243868827819824	-298.5391845703125	719.1983642578125	10.25264930725098	-346.6355285644531	795.206787109375	-26.3054370880127	-283.8031616210938	795.8783569335938	8.846723556518555	-262.3446655273438	1406.512573242188	489.9613037109375	-261.9098510742188	1353.914672851562	570.7028198242188	-198.6753540039062	1093.255493164062	674.6886596679688	-254.2970581054688	1061.810913085938	653.486572265625	-76.78497314453125	896.0623168945312	645.3488159179688	-121.8628387451172	889.5765380859375	720.2994995117188	-182.1175689697266	1039.63037109375	694.3203125	-44.18151473999023	748.377197265625	684.8602905273438	-40.92169570922852	807.5559692382812	672.2402954101562	-89.69229888916016	806.5552368164062	731.4204711914062	-214.6118774414062	1644.116455078125	381.7715759277344	-228.1479949951172	1635.19775390625	175.5927581787109	-138.1781768798828	1655.579833984375	268.2311096191406	-349.5028686523438	1621.606079101562	267.7955627441406	-243.0652770996094	841.7002563476562	115.0790405273438	-358.1316833496094	851.8612670898438	498.0211791992188	-239.2075347900391	887.728271484375	457.8672485351562	-180.0363464355469	889.35546875	214.1055145263672	-63.52226257324219	463.31787109375	187.7791137695312	-99.83876037597656	613.3884887695312	157.7937927246094	-71.82265472412109	45.25703048706055	219.2535400390625	-48.86843490600586	311.1829528808594	183.3352661132812	154.4711608886719	103.7238998413086	272.2356567382812	83.31461334228516	86.91180419921875	305.1726379394531	70.88044738769531	85.34095001220703	195.5942687988281	-111.8337631225586	45.88078308105469	286.5598449707031	-354.2586975097656	460.0914001464844	475.6604309082031	-323.1720275878906	718.3416137695312	514.371826171875	-482.6178588867188	45.62559509277344	450.96435546875	-379.2236938476562	316.1919860839844	480.8187561035156	-258.3091735839844	40.96572113037109	473.8018493652344	-309.7254333496094	51.06116104125977	419.8369445800781	-364.3524169921875	38.84634017944336	517.7957153320312	-529.2243041992188	42.00015640258789	386.3609619140625	
